<svg width="32" height="32" viewBox="0 0 32 32" fill="none" xmlns="http://www.w3.org/2000/svg">
<path d="M10 19.3333L12.456 11.9653C12.5177 11.7814 12.6355 11.6215 12.7929 11.5083C12.9504 11.395 13.1394 11.3341 13.3333 11.3341C13.5273 11.3341 13.7163 11.395 13.8737 11.5083C14.0312 11.6215 14.149 11.7814 14.2107 11.9653L16.6667 19.3333M20.6667 11.3333V19.3333M11.3333 16.6666H15.3333" stroke="currentColor" stroke-width="2" stroke-linecap="round" stroke-linejoin="round"/>
<path d="M28.0145 18.7959C28.7105 18.6079 29.0585 18.5133 29.1958 18.3346C29.3332 18.1546 29.3332 17.8666 29.3332 17.2893V14.7106C29.3332 14.1333 29.3332 13.8439 29.1958 13.6653C29.0585 13.4866 28.7105 13.3919 28.0145 13.2053C25.4145 12.5039 23.7865 9.78528 24.4572 7.20128C24.6425 6.49061 24.7345 6.13461 24.6465 5.92661C24.5585 5.71861 24.3052 5.57461 23.7998 5.28794L21.4998 3.98128C21.0038 3.70128 20.7558 3.55994 20.5332 3.58928C20.3105 3.61861 20.0585 3.86928 19.5558 4.37194C17.6105 6.31194 14.3918 6.31194 12.4452 4.37194C11.9425 3.87061 11.6918 3.61994 11.4692 3.58928C11.2465 3.55994 10.9985 3.69994 10.5025 3.98261L8.2025 5.28794C7.69584 5.57461 7.4425 5.71861 7.35584 5.92794C7.26784 6.13461 7.35984 6.49061 7.54384 7.20128C8.2145 9.78528 6.5865 12.5039 3.98517 13.2053C3.28917 13.3919 2.94117 13.4853 2.80384 13.6653C2.6665 13.8453 2.6665 14.1333 2.6665 14.7106V17.2893C2.6665 17.8666 2.6665 18.1559 2.80384 18.3346C2.94117 18.5133 3.28917 18.6079 3.98517 18.7959C6.58517 19.4973 8.21317 22.2159 7.5425 24.7986C7.35717 25.5093 7.26517 25.8653 7.35317 26.0733C7.44117 26.2813 7.6945 26.4253 8.19984 26.7133L10.4998 28.0173C10.9958 28.2999 11.2438 28.4399 11.4665 28.4106C11.6892 28.3813 11.9412 28.1306 12.4438 27.6279C14.3905 25.6853 17.6118 25.6853 19.5585 27.6279C20.0612 28.1293 20.3118 28.3799 20.5345 28.4106C20.7572 28.4399 21.0052 28.2999 21.5025 28.0173L23.8012 26.7119C24.3078 26.4253 24.5612 26.2813 24.6478 26.0719C24.7345 25.8626 24.6438 25.5093 24.4598 24.7986C23.7878 22.2159 25.4145 19.4973 28.0145 18.7959Z" stroke="currentColor" stroke-width="2" stroke-linecap="round"/>
</svg>
