<svg width="120" height="38" viewBox="0 0 120 38" fill="none" xmlns="http://www.w3.org/2000/svg">
<path fill-rule="evenodd" clip-rule="evenodd" d="M37.7503 18.7889C37.788 29.204 29.3673 37.6765 18.9422 37.7142C8.51841 37.7506 0.0378465 29.3379 0.000126231 18.9241C-0.037594 8.51025 8.38313 0.0365108 18.8082 0.00012611C29.232 -0.037558 37.7139 8.3751 37.7503 18.7889Z" fill="white"/>
<path fill-rule="evenodd" clip-rule="evenodd" d="M29.1558 15.1309L29.1805 21.9881L22.3167 22.0128L22.3415 28.87L15.4764 28.8947L15.453 22.0375L8.58786 22.0622L8.56445 15.2049L15.4282 15.1802L15.4035 8.32303L22.2673 8.29834L22.292 15.1556L29.1558 15.1309Z" fill="#E1081A"/>
<path fill-rule="evenodd" clip-rule="evenodd" d="M18.8093 0.434447C8.62617 0.470831 0.399248 8.74835 0.435667 18.9231C0.472087 29.0965 8.75754 37.3155 18.9407 37.2792C29.1252 37.2428 37.3508 28.9653 37.3144 18.7918C37.2793 8.61711 28.9938 0.398062 18.8093 0.434447ZM18.9394 36.8425C8.99817 36.8776 0.909124 28.8548 0.872704 18.9218C0.837585 8.98875 8.8681 0.907446 18.8106 0.871061C28.7532 0.835976 36.8422 8.8601 36.8786 18.7931C36.9138 28.7249 28.8819 36.8061 18.9394 36.8425Z" fill="#E1081A"/>
<path d="M4.56641 10.7528L5.08279 9.9705C5.4769 9.37405 5.90613 9.22851 6.37047 9.53518C6.83482 9.84055 6.86994 10.2928 6.47713 10.8892L6.25471 11.2271L6.93628 11.6767L6.64232 12.1211L4.56641 10.7528ZM6.07001 9.98869C5.8658 9.85485 5.672 9.92762 5.4873 10.2083L5.25058 10.5669L5.86191 10.9698L6.09863 10.6111C6.28333 10.3304 6.27422 10.1225 6.07001 9.98869Z" fill="#E1081A"/>
<path d="M7.79721 9.19163C7.65153 9.11886 7.51885 9.0201 7.40179 8.89666C7.28473 8.77321 7.19238 8.63677 7.12734 8.48733C7.06231 8.33789 7.02589 8.18196 7.02199 8.02083C7.01679 7.85969 7.0519 7.69466 7.12604 7.52573C7.20018 7.3568 7.31595 7.19957 7.46943 7.05273C7.62421 6.9059 7.7881 6.79934 7.95979 6.73437C8.13279 6.66809 8.29927 6.6421 8.46056 6.6551C8.62185 6.66809 8.77533 6.71227 8.92231 6.78504C9.06799 6.85781 9.20066 6.95657 9.31772 7.08002C9.43479 7.20347 9.52714 7.33991 9.59217 7.48935C9.65721 7.63879 9.69363 7.79472 9.69883 7.95585C9.70403 8.11698 9.66891 8.28202 9.59477 8.45094C9.52063 8.61987 9.40487 8.77711 9.25139 8.92395C9.0966 9.07079 8.93271 9.17734 8.76102 9.24231C8.58803 9.30858 8.42154 9.33457 8.26026 9.32028C8.09637 9.30728 7.94289 9.2644 7.79721 9.19163ZM9.16814 8.00783C9.16164 7.80512 9.07969 7.6206 8.92101 7.45427C8.76232 7.28794 8.58283 7.19567 8.37992 7.17878C8.17831 7.16189 7.98711 7.23855 7.80891 7.40748C7.62811 7.57901 7.54096 7.76483 7.54747 7.96755C7.55397 8.17026 7.63592 8.35479 7.7946 8.52112C7.95329 8.68745 8.13278 8.77971 8.33569 8.7966C8.5373 8.81349 8.72981 8.73682 8.9093 8.5653C9.0888 8.39637 9.17464 8.21054 9.16814 8.00783Z" fill="#E1081A"/>
<path d="M10.2631 6.4438C10.1525 6.25668 10.0862 6.06825 10.0641 5.87853C10.0419 5.69011 10.0588 5.51859 10.1161 5.36395C10.1733 5.20932 10.254 5.07027 10.3619 4.94553C10.4699 4.82078 10.5973 4.71422 10.7443 4.62846C10.9693 4.49592 11.1996 4.42184 11.4376 4.40625L11.6951 4.84417C11.4844 4.81688 11.2724 4.86626 11.0604 4.991C10.8523 5.11315 10.7105 5.27949 10.6351 5.49C10.5596 5.70051 10.5934 5.92531 10.7352 6.16701C10.8028 6.28136 10.8835 6.36973 10.9784 6.4334C11.0734 6.49707 11.1723 6.53346 11.2763 6.54385C11.3804 6.55425 11.4844 6.54645 11.5898 6.52176C11.6951 6.49707 11.7953 6.45679 11.8915 6.39962C12.1283 6.26057 12.2765 6.09294 12.3377 5.89802L12.603 6.34763C12.4678 6.55035 12.2869 6.71928 12.0632 6.85052C11.9163 6.93629 11.7628 6.99736 11.6015 7.03115C11.4402 7.06493 11.2789 7.07273 11.1176 7.05194C10.9563 7.03245 10.8003 6.97008 10.6494 6.86612C10.4972 6.76476 10.3684 6.62312 10.2631 6.4438Z" fill="#E1081A"/>
<path d="M13.0347 4.94443C12.9658 4.73782 12.9385 4.5403 12.9567 4.35058C12.9736 4.16086 13.0256 3.99713 13.1128 3.85809C13.1999 3.71905 13.3092 3.5995 13.4392 3.49944C13.5706 3.39938 13.7163 3.32142 13.8789 3.26814C14.126 3.18497 14.3666 3.16028 14.6033 3.19277L14.7659 3.67357C14.5643 3.6034 14.3471 3.6086 14.1143 3.68656C13.8854 3.76323 13.7124 3.89707 13.5953 4.08809C13.4782 4.27911 13.4639 4.50652 13.5537 4.77031C13.5966 4.89635 13.6577 4.99901 13.7371 5.08087C13.8164 5.16274 13.9062 5.21862 14.0063 5.2511C14.1052 5.28229 14.2092 5.29659 14.3172 5.29399C14.4252 5.29139 14.5318 5.2719 14.6372 5.23681C14.8973 5.14975 15.0768 5.0159 15.177 4.83788L15.3434 5.33167C15.1692 5.5032 14.9584 5.62925 14.7113 5.71241C14.55 5.76699 14.3874 5.79428 14.2222 5.79428C14.0571 5.79428 13.8984 5.76829 13.7436 5.71501C13.5888 5.66173 13.4496 5.56947 13.3235 5.43693C13.1973 5.30698 13.101 5.14195 13.0347 4.94443Z" fill="#E1081A"/>
<path d="M18.5189 4.99639L17.9895 5.05096L17.8581 3.7762C17.8451 3.65145 17.8373 3.5384 17.8334 3.43574L16.8475 5.16791L16.3493 5.21859L16.0957 2.74703L16.6264 2.69245L16.7578 3.96722C16.7708 4.09197 16.7786 4.20502 16.7825 4.30768L17.7684 2.5768L18.2666 2.52612L18.5189 4.99639Z" fill="#E1081A"/>
<path d="M21.4499 3.95687C21.4668 3.83212 21.485 3.72037 21.5045 3.62031L20.1453 5.0783L19.6484 5.01332L19.9723 2.55086L20.5004 2.61973L20.3339 3.8893C20.3183 4.01145 20.2988 4.1232 20.2793 4.22586L21.6385 2.76787L22.1354 2.83284L21.8115 5.29531L21.2834 5.22643L21.4499 3.95687ZM21.7009 2.04927C21.5253 2.12854 21.3354 2.15582 21.1286 2.12854C20.9244 2.10125 20.7475 2.02718 20.5992 1.90503L20.5485 2.28837C20.6851 2.41312 20.8607 2.48978 21.0766 2.51837C21.2951 2.54696 21.4863 2.51837 21.6502 2.43261L21.7009 2.04927Z" fill="#E1081A"/>
<path d="M23.1981 4.40107C23.2735 4.19706 23.3776 4.02683 23.5102 3.89038C23.6429 3.75394 23.786 3.65908 23.9408 3.60451C24.0955 3.55123 24.2555 3.52524 24.4207 3.53044C24.5859 3.53434 24.7485 3.56552 24.9085 3.6253C25.153 3.71496 25.3572 3.8475 25.5198 4.02033L25.3442 4.49593C25.2311 4.31531 25.0594 4.18276 24.8291 4.0983C24.6028 4.01513 24.3843 4.01123 24.1736 4.0853C23.9629 4.16067 23.8094 4.3283 23.7131 4.59079C23.6676 4.71554 23.6494 4.83379 23.6611 4.94814C23.6728 5.06249 23.7066 5.16255 23.7639 5.24832C23.8211 5.33538 23.8926 5.41075 23.9785 5.47702C24.0643 5.54199 24.1593 5.59397 24.2633 5.63295C24.5209 5.72781 24.7446 5.73691 24.9345 5.66024L24.7537 6.15014C24.5105 6.17353 24.2659 6.14104 24.0214 6.05138C23.8614 5.9929 23.717 5.91104 23.5883 5.80838C23.4595 5.70572 23.3515 5.58487 23.2657 5.44713C23.1786 5.30939 23.1278 5.14956 23.1135 4.96763C23.0979 4.78441 23.1265 4.59599 23.1981 4.40107Z" fill="#E1081A"/>
<path d="M26.0555 6.98883L25.6055 6.70295L26.94 4.60693L27.39 4.89281L26.8593 5.72577L27.1975 5.94147L28.2576 5.44638L28.7584 5.76475L27.4277 6.3534L27.4629 7.88546L26.9647 7.56969L26.9374 6.3495L26.5992 6.13379L26.0555 6.98883Z" fill="#E1081A"/>
<path d="M29.6514 9.98511L29.2768 9.60697L30.1899 8.70645C30.2783 8.61809 30.3628 8.54142 30.4396 8.47515L28.4716 8.79092L28.1191 8.43486L29.8881 6.6897L30.2627 7.06784L29.3509 7.96836C29.2612 8.05672 29.1779 8.13339 29.1012 8.19966L31.0704 7.8839L31.4216 8.23994L29.6514 9.98511Z" fill="#E1081A"/>
<path d="M32.2941 11.6143C32.4008 11.5493 32.501 11.4934 32.5907 11.4467L30.6019 11.2985L30.3418 10.871L32.4671 9.58325L32.7442 10.0381L31.6477 10.7021C31.5423 10.7658 31.4435 10.8216 31.3511 10.8697L33.3399 11.0178L33.6001 11.4454L31.4747 12.7331L31.1977 12.2783L32.2941 11.6143ZM33.9408 10.6163C33.7691 10.5293 33.6287 10.3967 33.5207 10.2187C33.414 10.0433 33.362 9.85873 33.3633 9.66641L33.0329 9.86653C33.0199 10.0511 33.0707 10.2369 33.1838 10.4227C33.2983 10.6111 33.4401 10.7424 33.6105 10.8164L33.9408 10.6163Z" fill="#E1081A"/>
<path d="M3.29083 23.9717L3.11133 23.4701L5.45259 22.6345L5.63208 23.1361L4.70208 23.4675L4.83736 23.8456L5.97937 24.1055L6.17838 24.6643L4.76581 24.3121L3.85143 25.5427L3.65242 24.9878L4.38081 24.008L4.24553 23.6299L3.29083 23.9717Z" fill="#E1081A"/>
<path d="M6.5609 25.3892L7.05516 26.1857C7.43107 26.7926 7.38294 27.2435 6.90949 27.5359C6.43603 27.8282 6.01201 27.671 5.6348 27.0629L5.42149 26.7185L4.72691 27.1486L4.44727 26.6964L6.5609 25.3892ZM6.62333 27.0745C6.83014 26.9459 6.84575 26.7393 6.66885 26.4534L6.44253 26.0883L5.8208 26.4729L6.04712 26.838C6.22402 27.1239 6.41522 27.2019 6.62333 27.0745Z" fill="#E1081A"/>
<path d="M6.4104 29.5283L6.0332 29.1268L8.54095 28.1665L8.93506 28.5862L7.81515 31.024L7.43796 30.6225L7.65387 30.1729L6.87605 29.3451L6.4104 29.5283ZM8.19756 28.8071L7.31178 29.1658L7.86068 29.7505L8.2717 28.8877C8.30422 28.8253 8.33934 28.7681 8.37836 28.7149C8.31593 28.7552 8.25609 28.785 8.19756 28.8071Z" fill="#E1081A"/>
<path d="M9.33343 30.7045C9.4583 30.5264 9.60268 30.3874 9.76526 30.2899C9.92785 30.1912 10.0917 30.1366 10.2556 30.1236C10.4195 30.1106 10.5808 30.1275 10.7382 30.1743C10.8969 30.2198 11.0451 30.2925 11.1856 30.39C11.3989 30.5394 11.5628 30.7188 11.676 30.928L11.3846 31.3438C11.3222 31.1411 11.1895 30.9683 10.9879 30.8279C10.7902 30.6889 10.5795 30.6291 10.3571 30.6486C10.1347 30.6668 9.94215 30.7915 9.78216 31.0202C9.70542 31.1281 9.6586 31.2399 9.64039 31.3516C9.62218 31.4647 9.62999 31.5699 9.6625 31.6687C9.69632 31.7674 9.74575 31.8597 9.81209 31.9442C9.87842 32.0299 9.95646 32.104 10.0475 32.1677C10.2725 32.3249 10.4871 32.3912 10.6888 32.3665L10.3896 32.794C10.149 32.755 9.92135 32.6602 9.70803 32.5107C9.56886 32.4133 9.44919 32.2976 9.35163 32.1651C9.25408 32.0325 9.17994 31.8896 9.13182 31.7336C9.08369 31.5777 9.07458 31.4101 9.1071 31.2308C9.13832 31.0501 9.21377 30.8747 9.33343 30.7045Z" fill="#E1081A"/>
<path d="M14.0729 31.9245L14.5645 32.1285L13.6111 34.4233L13.1195 34.2193L13.5032 33.2954L12.473 32.8679L12.0893 33.7918L11.5977 33.5878L12.5511 31.293L13.0427 31.497L12.659 32.4209L13.6892 32.8484L14.0729 31.9245Z" fill="#E1081A"/>
<path d="M16.1103 35.0225L15.1816 34.89L15.5341 32.4314L16.0609 32.5068L15.9452 33.315L16.3458 33.3722C17.0533 33.4788 17.3668 33.8036 17.2888 34.3494C17.212 34.8991 16.8179 35.1239 16.1103 35.0225ZM15.8801 33.7776L15.7761 34.5014L16.2014 34.5625C16.5344 34.6106 16.7178 34.5131 16.7529 34.2727C16.788 34.031 16.6384 33.8868 16.3054 33.84L15.8801 33.7776ZM17.9001 35.2785L17.3733 35.2031L17.7258 32.7446L18.2526 32.8199L17.9001 35.2785Z" fill="#E1081A"/>
<path d="M21.0372 33.8278C21.0242 33.7031 21.0164 33.59 21.0125 33.4874L20.0304 35.2208L19.5323 35.2728L19.2734 32.8026L19.8028 32.7467L19.9368 34.0202C19.9498 34.1423 19.9576 34.2554 19.9615 34.3606L20.9435 32.6271L21.4417 32.5752L21.7005 35.0454L21.1699 35.1013L21.0372 33.8278ZM20.8369 31.915C20.6847 32.0333 20.5052 32.1035 20.2984 32.1242C20.0942 32.1463 19.9043 32.1139 19.7313 32.0307L19.7716 32.4153C19.9329 32.505 20.1228 32.5388 20.34 32.5167C20.5585 32.4933 20.738 32.4218 20.8785 32.2997L20.8369 31.915Z" fill="#E1081A"/>
<path d="M25.32 33.9483L24.8361 34.1705L23.8008 31.9121L24.2846 31.6899L24.6957 32.5865L25.0612 32.4202L25.2211 31.2611L25.7596 31.0142L25.5307 32.4501L26.8366 33.2531L26.3007 33.4987L25.2615 32.8581L24.896 33.0244L25.32 33.9483Z" fill="#E1081A"/>
<path d="M26.4492 30.5718L27.201 30.013C27.7746 29.5868 28.2273 29.5959 28.5603 30.0416C28.8919 30.4873 28.7723 30.9239 28.1987 31.3502L27.8735 31.5919L28.3612 32.2468L27.9333 32.5652L26.4492 30.5718ZM28.1245 30.3665C27.9788 30.1716 27.7707 30.1742 27.5015 30.3743L27.1568 30.6303L27.5938 31.2163L27.9385 30.9603C28.2078 30.7589 28.2702 30.5614 28.1245 30.3665Z" fill="#E1081A"/>
<path d="M28.6992 28.755L29.8673 27.4517L30.2158 27.7648L29.4029 28.6718L29.797 29.0253L30.5384 28.1975L30.8844 28.5081L30.143 29.3359L30.5553 29.7049L31.3826 28.7823L31.7311 29.0955L30.5488 30.4144L28.6992 28.755Z" fill="#E1081A"/>
<path d="M31.4469 27.4583C31.2595 27.3478 31.11 27.2153 30.9994 27.0607C30.8889 26.906 30.8199 26.7475 30.7952 26.5864C30.7705 26.4239 30.7744 26.2628 30.8082 26.1017C30.842 25.9405 30.9019 25.7859 30.989 25.6391C31.1217 25.4156 31.2882 25.2388 31.4872 25.1089L31.9242 25.3675C31.7265 25.4454 31.5652 25.591 31.4403 25.8028C31.3168 26.0107 31.2739 26.2251 31.3103 26.4447C31.3467 26.6656 31.4846 26.8463 31.7252 26.9879C31.8397 27.0555 31.9528 27.0932 32.0673 27.1036C32.1817 27.1126 32.2858 27.097 32.3821 27.0568C32.4783 27.0152 32.5655 26.9593 32.6448 26.8865C32.7241 26.8138 32.7931 26.7306 32.8503 26.6344C32.9895 26.3979 33.0389 26.1796 32.9973 25.9795L33.4473 26.2446C33.4265 26.4876 33.3511 26.7215 33.2184 26.9463C33.1313 27.0932 33.0259 27.2205 32.901 27.3284C32.7775 27.4362 32.6383 27.5207 32.4874 27.5805C32.3365 27.6415 32.17 27.6623 31.9879 27.6441C31.8071 27.6259 31.6263 27.5636 31.4469 27.4583Z" fill="#E1081A"/>
<path d="M31.6992 24.3943L32.373 22.4529L32.8256 22.6101L32.5759 23.3313L34.4723 23.9888L34.298 24.4878L32.4016 23.8303L32.1506 24.5515L31.6992 24.3943Z" fill="#E1081A"/>
<path d="M115.105 20.9559H120.001V22.0969H118.182V26.8697H116.922V22.0969H115.104V20.9559H115.105ZM109.767 23.9798C109.767 23.4613 109.856 22.9974 110.037 22.5855C110.223 22.1683 110.465 21.837 110.764 21.5888C111.069 21.3406 111.407 21.1547 111.779 21.0313C112.151 20.9014 112.54 20.8364 112.946 20.8364C113.566 20.8364 114.129 20.9637 114.637 21.2171V22.4256C114.236 22.1163 113.743 21.9604 113.156 21.9604C112.581 21.9604 112.088 22.1319 111.676 22.4763C111.27 22.8142 111.067 23.3157 111.067 23.9798C111.067 24.2955 111.127 24.5762 111.246 24.8244C111.364 25.0661 111.521 25.261 111.719 25.4079C111.922 25.5547 112.144 25.6665 112.388 25.7457C112.636 25.8185 112.892 25.8562 113.158 25.8562C113.812 25.8562 114.319 25.6924 114.679 25.3663V26.6086C114.155 26.8619 113.583 26.9893 112.963 26.9893C112.557 26.9893 112.168 26.9269 111.796 26.8035C111.424 26.68 111.083 26.4994 110.772 26.2629C110.468 26.0264 110.222 25.7106 110.036 25.3169C109.856 24.9206 109.767 24.4762 109.767 23.9798ZM104.952 20.9559H109.12V22.0709H106.22V23.33H108.867V24.4372H106.22V25.7548H109.171V26.8697H104.952V20.9559ZM101.604 23.8108C102.403 23.8108 102.804 23.5211 102.804 22.9402C102.804 22.3593 102.403 22.0696 101.604 22.0696H100.58V23.8095H101.604V23.8108ZM99.3117 20.9559H101.544C103.246 20.9559 104.097 21.6174 104.097 22.9415C104.097 24.2656 103.246 24.9271 101.544 24.9271H100.58V26.8697H99.3117V20.9559ZM94.7346 26.8697H93.4664V20.9559H94.7346V23.304H95.6906L97.1877 20.9559H98.6002L96.6804 23.8368L98.7095 26.8697H97.3061L95.6906 24.4541H94.7346V26.8697ZM89.057 20.162C88.6967 20.4154 88.2532 20.5427 87.729 20.5427C87.21 20.5427 86.7704 20.4154 86.4101 20.162V19.2407C86.799 19.4824 87.2386 19.6045 87.729 19.6045C88.2246 19.6045 88.6681 19.4837 89.057 19.2407V20.162ZM89.057 26.8697H90.3252V20.9559H89.1325L86.3763 24.8166C86.3932 24.5684 86.4023 24.2981 86.4023 24.0058V20.9559H85.1341V26.8697H86.3269L89.083 23.0091C89.0661 23.2508 89.057 23.5211 89.057 23.8199V26.8697ZM83.8672 26.8697H82.599V20.9559H83.8672V26.8697ZM78.5994 24.0135V25.7535H79.623C80.423 25.7535 80.8236 25.4637 80.8236 24.8829C80.8236 24.302 80.423 24.0122 79.623 24.0122H78.5994V24.0135ZM79.5632 26.8697H77.3312V20.9559H78.5994V22.8986H79.5632C81.2658 22.9103 82.1165 23.5717 82.1165 24.8842C82.1165 26.2083 81.2658 26.8697 79.5632 26.8697ZM74.7962 20.9559H76.0643V26.8697H74.7962V24.4879H72.1414V26.8697H70.8732V20.9559H72.1414V23.3378H74.7962V20.9559ZM65.011 23.9798C65.011 23.4613 65.1007 22.9974 65.2815 22.5855C65.4675 22.1683 65.7095 21.837 66.0086 21.5888C66.313 21.3406 66.6512 21.1547 67.0232 21.0313C67.3952 20.9014 67.7841 20.8364 68.1899 20.8364C68.8103 20.8364 69.3735 20.9637 69.8808 21.2171V22.4256C69.4802 22.1163 68.9872 21.9604 68.4006 21.9604C67.8257 21.9604 67.3327 22.1319 66.9204 22.4763C66.5146 22.8142 66.3117 23.3157 66.3117 23.9798C66.3117 24.2955 66.3715 24.5762 66.4899 24.8244C66.6083 25.0661 66.7656 25.261 66.9634 25.4079C67.1663 25.5547 67.3887 25.6665 67.6319 25.7457C67.8803 25.8185 68.1366 25.8562 68.4019 25.8562C69.0562 25.8562 69.5634 25.6924 69.9237 25.3663V26.6086C69.3996 26.8619 68.8273 26.9893 68.2068 26.9893C67.801 26.9893 67.4121 26.9269 67.0401 26.8035C66.6681 26.68 66.3273 26.4994 66.0164 26.2629C65.7121 26.0264 65.4662 25.7106 65.2802 25.3169C65.1008 24.9206 65.011 24.4762 65.011 23.9798ZM61.7215 22.5945L60.9008 24.7153H62.8115L61.983 22.5945C61.927 22.4373 61.8841 22.2814 61.8555 22.1293C61.823 22.3048 61.7775 22.4594 61.7215 22.5945ZM60.0644 26.8697H58.7533L61.1713 20.9559H62.541L64.9512 26.8697H63.6401L63.2082 25.7626H60.5028L60.0644 26.8697ZM56.5669 23.8108C57.3668 23.8108 57.7674 23.5211 57.7674 22.9402C57.7674 22.3593 57.3668 22.0696 56.5669 22.0696H55.5432V23.8095H56.5669V23.8108ZM54.2763 20.9559H56.5083C58.2109 20.9559 59.0616 21.6174 59.0616 22.9415C59.0616 24.2656 58.2109 24.9271 56.5083 24.9271H55.5445V26.8697H54.2763V20.9559ZM49.6979 26.8697H48.4297V20.9559H49.6979V23.304H50.6539L52.151 20.9559H53.5635L51.6437 23.8368L53.6728 26.8697H52.2694L50.6539 24.4541H49.6979V26.8697ZM106.378 9.53113C106.045 9.76764 105.651 9.88589 105.195 9.88589C104.738 9.88589 104.344 9.76764 104.011 9.53113V8.87231C104.388 9.12051 104.784 9.24396 105.195 9.24396C105.606 9.24396 106.001 9.12051 106.378 8.87231V9.53113ZM106.953 16.3741H107.664V10.4602H107.004L103.444 15.1825V14.6757V10.4602H102.734V16.3741H103.393L106.953 11.644V12.1508V16.3741ZM101.181 16.3741H100.471V12.1508V11.644L96.9106 16.3741H96.2512V10.4602H96.9614V14.6757V15.1825L100.521 10.4602H101.181V16.3741ZM91.3385 16.3741H90.6283V10.4602H91.3385V13.0202H92.6834L94.4679 10.4602H95.2796L93.2674 13.3411L95.4578 16.3741H94.6461L92.7094 13.6959H91.3397V16.3741H91.3385ZM84.6659 13.4594C84.6659 12.8058 84.8206 12.2405 85.1315 11.761C85.4411 11.2763 85.8274 10.9216 86.2904 10.6967C86.7522 10.4719 87.2491 10.3589 87.7784 10.3589C88.3872 10.3589 88.9426 10.4914 89.4446 10.7565V11.466C89.0167 11.1788 88.5003 11.0346 87.8968 11.0346C87.2204 11.0346 86.6338 11.2425 86.1382 11.6596C85.6427 12.0703 85.3917 12.6706 85.3851 13.4594C85.3851 13.961 85.5126 14.3937 85.7662 14.7601C86.0251 15.1266 86.3412 15.3904 86.7132 15.5541C87.0904 15.7178 87.4936 15.7997 87.9228 15.7997C88.5602 15.7997 89.0817 15.6555 89.4875 15.3683V16.0778C88.9751 16.3429 88.4028 16.4754 87.7706 16.4754C87.3934 16.4754 87.0214 16.4104 86.6546 16.2805C86.2878 16.1454 85.9562 15.9569 85.657 15.7139C85.3578 15.4657 85.1185 15.1474 84.9377 14.7588C84.7556 14.3664 84.6659 13.9324 84.6659 13.4594ZM82.2257 9.53113C81.8928 9.76764 81.4987 9.88589 81.0421 9.88589C80.5856 9.88589 80.1915 9.76764 79.8585 9.53113V8.87231C80.2357 9.12051 80.6311 9.24396 81.0421 9.24396C81.4531 9.24396 81.8485 9.12051 82.2257 8.87231V9.53113ZM82.8007 16.3741H83.5108V10.4602H82.8514L79.2914 15.1825V14.6757V10.4602H78.5812V16.3741H79.2406L82.8007 11.644V12.1508V16.3741ZM77.0282 16.3741H76.318V12.1508V11.644L72.758 16.3741H72.0985V10.4602H72.8087V14.6757V15.1825L76.3687 10.4602H77.0282V16.3741ZM66.1361 13.4594C66.1361 12.8058 66.2909 12.2405 66.6018 11.761C66.9113 11.2763 67.2976 10.9216 67.7607 10.6967C68.2224 10.4719 68.7193 10.3589 69.2487 10.3589C69.8574 10.3589 70.4128 10.4914 70.9149 10.7565V11.466C70.4869 11.1788 69.9706 11.0346 69.367 11.0346C68.6907 11.0346 68.1041 11.2425 67.6085 11.6596C67.1129 12.0703 66.8619 12.6706 66.8554 13.4594C66.8554 13.961 66.9829 14.3937 67.2365 14.7601C67.4953 15.1266 67.8114 15.3904 68.1834 15.5541C68.5606 15.7178 68.9638 15.7997 69.393 15.7997C70.0304 15.7997 70.552 15.6555 70.9578 15.3683V16.0778C70.4453 16.3429 69.873 16.4754 69.2409 16.4754C68.8637 16.4754 68.4917 16.4104 68.1249 16.2805C67.7581 16.1454 67.4264 15.9569 67.1272 15.7139C66.8281 15.4657 66.5887 15.1474 66.408 14.7588C66.2259 14.3664 66.1361 13.9324 66.1361 13.4594ZM60.7187 13.4594C60.7187 12.8058 60.8735 12.2405 61.1843 11.761C61.4939 11.2763 61.8802 10.9216 62.3433 10.6967C62.805 10.4719 63.3019 10.3589 63.8313 10.3589C64.44 10.3589 64.9954 10.4914 65.4975 10.7565V11.466C65.0695 11.1788 64.5532 11.0346 63.9496 11.0346C63.2733 11.0346 62.6867 11.2425 62.1911 11.6596C61.6955 12.0703 61.4445 12.6706 61.438 13.4594C61.438 13.961 61.5654 14.3937 61.8191 14.7601C62.0779 15.1266 62.394 15.3904 62.766 15.5541C63.1432 15.7178 63.5464 15.7997 63.9756 15.7997C64.613 15.7997 65.1346 15.6555 65.5404 15.3683V16.0778C65.0279 16.3429 64.4556 16.4754 63.8235 16.4754C63.4463 16.4754 63.0743 16.4104 62.7075 16.2805C62.3407 16.1454 62.009 15.9569 61.7098 15.7139C61.4107 15.4657 61.1713 15.1474 60.9905 14.7588C60.8084 14.3664 60.7187 13.9324 60.7187 13.4594ZM59.085 14.304C59.1865 14.022 59.2372 13.7271 59.2372 13.4165C59.2372 13.1072 59.1865 12.811 59.085 12.529C58.9888 12.247 58.8457 11.9936 58.6532 11.7688C58.4672 11.544 58.2187 11.366 57.9092 11.236C57.5996 11.1009 57.2497 11.0333 56.8608 11.0333C56.4719 11.0333 56.122 11.1009 55.8125 11.236C55.5029 11.366 55.2519 11.5427 55.0594 11.7688C54.8734 11.9936 54.729 12.247 54.6275 12.529C54.5313 12.811 54.4831 13.1059 54.4831 13.4165C54.4831 13.7258 54.5313 14.022 54.6275 14.304C54.729 14.586 54.8734 14.8394 55.0594 15.0642C55.2506 15.289 55.5016 15.4696 55.8125 15.6048C56.122 15.7347 56.4719 15.7997 56.8608 15.7997C57.2497 15.7997 57.5996 15.7347 57.9092 15.6048C58.2187 15.4696 58.4672 15.289 58.6532 15.0642C58.8457 14.8394 58.9888 14.586 59.085 14.304ZM53.9603 14.5405C53.8302 14.1806 53.7652 13.805 53.7652 13.4165C53.7652 13.028 53.8302 12.6537 53.9603 12.2925C54.0955 11.9325 54.2867 11.6077 54.5352 11.3205C54.7836 11.0281 55.1075 10.7942 55.5081 10.6188C55.9087 10.4446 56.3587 10.3563 56.8608 10.3563C57.3629 10.3563 57.8129 10.4434 58.2135 10.6188C58.6142 10.7929 58.938 11.0268 59.1865 11.3205C59.4349 11.6077 59.6235 11.9312 59.7536 12.2925C59.8888 12.6524 59.9565 13.028 59.9565 13.4165C59.9565 13.805 59.8888 14.1793 59.7536 14.5405C59.6235 14.9005 59.4349 15.2279 59.1865 15.5203C58.938 15.8075 58.6142 16.0388 58.2135 16.2129C57.8129 16.3871 57.3629 16.4754 56.8608 16.4754C56.3587 16.4754 55.9087 16.3884 55.5081 16.2129C55.1075 16.0375 54.7836 15.8075 54.5352 15.5203C54.288 15.2279 54.0955 14.9018 53.9603 14.5405ZM52.3864 12.3704C52.3864 12.1287 52.3409 11.926 52.2511 11.7623C52.1614 11.5934 52.0313 11.466 51.8622 11.3816C51.6983 11.2919 51.5189 11.2295 51.3211 11.1957C51.1234 11.1568 50.8932 11.136 50.6279 11.136H49.2829V13.6023H50.6279C51.1742 13.6023 51.6034 13.5127 51.913 13.332C52.229 13.1527 52.3864 12.8317 52.3864 12.3704ZM48.5728 10.4602H50.5941C52.2681 10.4602 53.1057 11.097 53.1057 12.3691C53.1057 13.6413 52.2681 14.278 50.5941 14.278H49.2829V16.3728H48.5728V10.4602Z" fill="#28282C"/>
</svg>
