<svg width="255" height="34" viewBox="0 0 255 34" fill="none" xmlns="http://www.w3.org/2000/svg">
<rect width="255" height="34" fill="#AFAFAF"/>
<g id="Organism">
<path d="M-2505.09 -982.426C-2505.09 -995.681 -2494.35 -1006.43 -2481.09 -1006.43H926.907C940.162 -1006.43 950.907 -995.681 950.907 -982.426V1178.57C950.907 1191.83 940.162 1202.57 926.907 1202.57H-2481.09C-2494.35 1202.57 -2505.09 1191.83 -2505.09 1178.57V-982.426Z" fill="#C7C7C7"/>
<path d="M-2481.09 -1006.43V-1005.43H926.907V-1006.43V-1007.43H-2481.09V-1006.43ZM950.907 -982.426H949.907V1178.57H950.907H951.907V-982.426H950.907ZM926.907 1202.57V1201.57H-2481.09V1202.57V1203.57H926.907V1202.57ZM-2505.09 1178.57H-2504.09V-982.426H-2505.09H-2506.09V1178.57H-2505.09ZM-2481.09 1202.57V1201.57C-2493.8 1201.57 -2504.09 1191.28 -2504.09 1178.57H-2505.09H-2506.09C-2506.09 1192.38 -2494.9 1203.57 -2481.09 1203.57V1202.57ZM950.907 1178.57H949.907C949.907 1191.28 939.61 1201.57 926.907 1201.57V1202.57V1203.57C940.714 1203.57 951.907 1192.38 951.907 1178.57H950.907ZM926.907 -1006.43V-1005.43C939.61 -1005.43 949.907 -995.129 949.907 -982.426H950.907H951.907C951.907 -996.233 940.714 -1007.43 926.907 -1007.43V-1006.43ZM-2481.09 -1006.43V-1007.43C-2494.9 -1007.43 -2506.09 -996.233 -2506.09 -982.426H-2505.09H-2504.09C-2504.09 -995.129 -2493.8 -1005.43 -2481.09 -1005.43V-1006.43Z" fill="black" fill-opacity="0.1"/>
<g id="InitiativeCard.astro">
<rect x="-62.5928" y="-593.926" width="380" height="1513" rx="4.5" stroke="#8A38F5" stroke-dasharray="10 5"/>
<g id="Case Study=WearSun">
<rect x="-43.0928" y="-76.4263" width="341" height="478" rx="16" fill="#F6F6F6"/>
<g id="Image">
<rect width="341" height="186" transform="translate(-43.0928 -76.4263)" fill="#E8E8E8"/>
<g id="Logo_full_orange 2" clip-path="url(#clip0_110_18)">
<g id="Layer 1">
<g id="Group">
<g id="Group_2">
<path id="Vector" d="M0.000244141 0.486328H6.95945L12.9826 20.015L18.8713 0.486328H24.3597L30.2495 20.0594L36.2715 0.486328H43.187L33.0587 31.6799H27.5714L21.5931 11.9726L15.6147 31.6799H10.1263L0.000244141 0.486328Z" fill="#FC5B04"/>
<path id="Vector_2" d="M48.6821 0.486328H71.0798V6.45039H55.6873V12.8574H69.7413V18.6461H55.6873V25.6715H71.3029V31.6811H48.6833V0.486328H48.6821Z" fill="#FC5B04"/>
<path id="Vector_3" d="M89.2309 0.486328H95.5657L107.924 31.6799H100.518L98.4209 26.0245H86.1078L84.0104 31.6799H76.7373L89.2309 0.486328ZM96.3695 20.3691L92.3092 9.2348L88.2052 20.3691H96.3695Z" fill="#FC5B04"/>
<path id="Vector_4" d="M113.353 0.486328H126.202C132.448 0.486328 136.731 4.28547 136.731 9.67666C136.731 14.4051 133.609 17.7179 128.701 18.6017L138.783 31.6799H130.484L121.116 18.8226H120.357V31.6799H113.352V0.486328H113.353ZM120.357 5.87752V13.6978H125.355C128.165 13.6978 129.725 12.1957 129.725 9.76548C129.725 7.51175 128.164 5.87752 125.398 5.87752H120.356H120.357Z" fill="#FC5B04"/>
<path id="Vector_5" d="M152.401 27.0847L156.951 22.6217C158.959 24.9642 161.324 26.2454 164.625 26.2454C167.569 26.2454 169.31 25.0963 169.31 23.2412C169.31 17.3637 154.542 20.147 154.542 9.19033C154.542 3.4461 159.093 0 165.606 0C170.023 0 173.815 1.67864 176.181 4.28653L171.629 8.74958C169.755 6.8056 167.882 5.87746 165.473 5.87746C163.064 5.87746 161.502 6.8056 161.502 8.52865C161.502 13.9631 176.269 11.2675 176.269 22.6228C176.269 28.588 171.763 32.1673 164.178 32.1673C159.004 32.1673 155.479 30.5319 152.4 27.0858L152.401 27.0847Z" fill="#FC5B04"/>
<path id="Vector_6" d="M246.694 28.1016C246.694 25.8034 248.389 23.9927 250.754 23.9927C253.119 23.9927 254.814 25.8034 254.814 28.1016C254.814 30.3997 253.118 32.1672 250.754 32.1672C248.39 32.1672 246.694 30.3997 246.694 28.1016Z" fill="#FC5B04"/>
<path id="Vector_7" d="M241.627 31.6746C241.611 30.1614 241.603 28.5738 241.586 27.9188C241.569 27.2726 241.561 26.6176 241.544 25.947C241.387 20.0474 240.933 13.6081 237.72 7.87278C235.506 4.10028 232.101 1.54013 228.202 0.582018C226.905 0.263387 225.559 0.123501 224.179 0.17346C223.171 0.214538 222.179 0.353314 221.213 0.582018C216.594 1.68668 212.579 4.9185 210.323 9.49258C209.274 11.4477 208.514 13.486 207.771 15.4577C207.085 17.3074 206.432 19.0493 205.598 20.5636L205.54 20.678C203.986 23.7621 200.583 26.5932 196.758 25.5795C190.487 23.3291 189.686 15.3434 189.29 5.14055C189.257 4.21574 189.216 2.3417 189.174 0.583128H181.747C181.788 2.39943 181.821 4.4611 181.854 5.42698C182.11 11.9484 182.425 20.0729 186.101 25.9481C187.555 28.3051 189.554 30.3013 192.313 31.6757C192.908 31.9788 193.544 32.2564 194.213 32.4939C194.279 32.5184 194.346 32.5428 194.412 32.5672L194.627 32.6327C195.858 32.9847 197.098 33.1479 198.336 33.1479C199.766 33.1479 201.178 32.9269 202.533 32.4928C203.227 32.2719 203.913 32.0021 204.583 31.6746C207.086 30.4478 209.324 28.4994 211.027 25.947C211.44 25.342 211.821 24.6947 212.167 24.0241C213.233 22.0602 214.001 19.9985 214.753 18.0101C215.44 16.1694 216.084 14.4341 216.91 12.9131L216.984 12.7744C218.504 9.65689 221.371 7.65185 224.469 7.53749C227.269 7.43091 229.699 8.86309 231.252 11.5054C233.591 15.6787 233.962 20.6447 234.103 25.947C234.12 26.6509 234.136 27.3625 234.152 28.0742C234.169 28.7126 234.177 30.2014 234.202 31.6746H241.63H241.627Z" fill="#FC5B04"/>
</g>
<g id="Group_3">
<path id="Vector_8" d="M247.989 4.4709V1.12694H246.878V0.542969H249.744V1.12694H248.6V4.4709H247.987H247.989Z" fill="#FC5B04"/>
<path id="Vector_9" d="M250.499 4.47076V0.543945H251.099L252.544 2.87206L252.255 2.86651L253.716 0.543945H254.282V4.47076H253.67V2.86096C253.67 2.52456 253.678 2.22148 253.696 1.95169C253.714 1.68191 253.742 1.41546 253.784 1.14901L253.863 1.35662L252.566 3.34279H252.192L250.934 1.37882L250.996 1.14901C251.037 1.39992 251.066 1.65638 251.083 1.92061C251.1 2.18484 251.109 2.49792 251.109 2.85985V4.46965H250.497L250.499 4.47076Z" fill="#FC5B04"/>
</g>
</g>
</g>
</g>
</g>
</g>
</g>
</g>
<defs>
<clipPath id="clip0_110_18">
<rect width="254.814" height="33.1478" fill="white"/>
</clipPath>
</defs>
</svg>
